HIERARCHY
ROOT Hips
{
    OFFSET   0.000000   0.000000   0.000000
    CHANNELS 6 Xposition Yposition Zposition Zrotation Xrotation Yrotation
    JOINT Chest
    {
        OFFSET   0.000000   8.007230   0.000000
        CHANNELS 3 Zrotation Xrotation Yrotation
        JOINT Chest2
        {
            OFFSET   0.000000  22.077100   0.000000
            CHANNELS 3 Zrotation Xrotation Yrotation
            JOINT Neck
            {
                OFFSET   0.000000  23.254800  -0.000021
                CHANNELS 3 Zrotation Xrotation Yrotation
                JOINT Head
                {
                    OFFSET   0.000000  14.370000   1.956610
                    CHANNELS 3 Zrotation Xrotation Yrotation
                    End Site
                    {
                        OFFSET   0.000000  19.566000   0.000000
                    }
                }
            }
            JOINT LeftCollar
            {
                OFFSET   3.911900  19.017000  -0.467063
                CHANNELS 3 Zrotation Xrotation Yrotation
                JOINT LeftShoulder
                {
                    OFFSET  10.383700   0.000000   0.000000
                    CHANNELS 3 Zrotation Xrotation Yrotation
                    JOINT LeftElbow
                    {
                        OFFSET  26.662100   0.001529   0.000325
                        CHANNELS 3 Zrotation Xrotation Yrotation
                        JOINT LeftWrist
                        {
                            OFFSET  28.869000  -0.000011  -0.000096
                            CHANNELS 3 Zrotation Xrotation Yrotation
                            JOINT LeftFinger0
                            {
                                OFFSET   2.044650  -2.323460   3.252850
                                CHANNELS 3 Zrotation Xrotation Yrotation
                                JOINT LeftFinger01
                                {
                                    OFFSET   3.088130   0.000000   0.000000
                                    CHANNELS 3 Zrotation Xrotation Yrotation
                                    JOINT LeftFinger02
                                    {
                                        OFFSET   2.639460   0.000000   0.000000
                                        CHANNELS 3 Zrotation Xrotation Yrotation
                                        End Site
                                        {
                                            OFFSET   2.582190   0.000000   0.000000
                                        }
                                    }
                                }
                            }
                            JOINT LeftFinger1
                            {
                                OFFSET   8.364480   0.000000   3.252850
                                CHANNELS 3 Zrotation Xrotation Yrotation
                                JOINT LeftFinger11
                                {
                                    OFFSET   4.646930   0.000000   0.000000
                                    CHANNELS 3 Zrotation Xrotation Yrotation
                                    JOINT LeftFinger12
                                    {
                                        OFFSET   2.323460   0.000000   0.000000
                                        CHANNELS 3 Zrotation Xrotation Yrotation
                                        End Site
                                        {
                                            OFFSET   2.273050   0.000000   0.000000
                                        }
                                    }
                                }
                            }
                            JOINT LeftFinger2
                            {
                                OFFSET   8.364480   0.000016   1.078090
                                CHANNELS 3 Zrotation Xrotation Yrotation
                                JOINT LeftFinger21
                                {
                                    OFFSET   5.111620   0.000000   0.000000
                                    CHANNELS 3 Zrotation Xrotation Yrotation
                                    JOINT LeftFinger22
                                    {
                                        OFFSET   2.788160   0.000017   0.000000
                                        CHANNELS 3 Zrotation Xrotation Yrotation
                                        End Site
                                        {
                                            OFFSET   2.727660   0.000000   0.000000
                                        }
                                    }
                                }
                            }
                            JOINT LeftFinger3
                            {
                                OFFSET   7.899780   0.000015  -1.078090
                                CHANNELS 3 Zrotation Xrotation Yrotation
                                JOINT LeftFinger31
                                {
                                    OFFSET   4.646920   0.000000   0.000000
                                    CHANNELS 3 Zrotation Xrotation Yrotation
                                    JOINT LeftFinger32
                                    {
                                        OFFSET   2.323470   0.000000   0.000000
                                        CHANNELS 3 Zrotation Xrotation Yrotation
                                        End Site
                                        {
                                            OFFSET   2.273050   0.000000   0.000000
                                        }
                                    }
                                }
                            }
                            JOINT LeftFinger4
                            {
                                OFFSET   7.435090   0.000000  -3.252850
                                CHANNELS 3 Zrotation Xrotation Yrotation
                                JOINT LeftFinger41
                                {
                                    OFFSET   3.717550   0.000000   0.000000
                                    CHANNELS 3 Zrotation Xrotation Yrotation
                                    JOINT LeftFinger42
                                    {
                                        OFFSET   1.858760   0.000000   0.000000
                                        CHANNELS 3 Zrotation Xrotation Yrotation
                                        End Site
                                        {
                                            OFFSET   1.818440   0.000000   0.000000
                                        }
                                    }
                                }
                            }
                        }
                    }
                }
            }
            JOINT RightCollar
            {
                OFFSET  -3.911900  19.017000  -0.467062
                CHANNELS 3 Zrotation Xrotation Yrotation
                JOINT RightShoulder
                {
                    OFFSET -10.383700   0.000015   0.000000
                    CHANNELS 3 Zrotation Xrotation Yrotation
                    JOINT RightElbow
                    {
                        OFFSET -26.662100   0.001341   0.000385
                        CHANNELS 3 Zrotation Xrotation Yrotation
                        JOINT RightWrist
                        {
                            OFFSET -28.869000   0.000025  -0.000080
                            CHANNELS 3 Zrotation Xrotation Yrotation
                            JOINT RightFinger0
                            {
                                OFFSET  -2.044650  -2.323490   3.252850
                                CHANNELS 3 Zrotation Xrotation Yrotation
                                JOINT RightFinger01
                                {
                                    OFFSET  -3.088130   0.000000   0.000000
                                    CHANNELS 3 Zrotation Xrotation Yrotation
                                    JOINT RightFinger02
                                    {
                                        OFFSET  -2.639460   0.000000   0.000000
                                        CHANNELS 3 Zrotation Xrotation Yrotation
                                        End Site
                                        {
                                            OFFSET  -2.582190   0.000000   0.000000
                                        }
                                    }
                                }
                            }
                            JOINT RightFinger1
                            {
                                OFFSET  -8.364480   0.000000   3.252850
                                CHANNELS 3 Zrotation Xrotation Yrotation
                                JOINT RightFinger11
                                {
                                    OFFSET  -4.646930   0.000000   0.000000
                                    CHANNELS 3 Zrotation Xrotation Yrotation
                                    JOINT RightFinger12
                                    {
                                        OFFSET  -2.323470   0.000000   0.000000
                                        CHANNELS 3 Zrotation Xrotation Yrotation
                                        End Site
                                        {
                                            OFFSET  -2.273050   0.000000   0.000000
                                        }
                                    }
                                }
                            }
                            JOINT RightFinger2
                            {
                                OFFSET  -8.364480   0.000000   1.078090
                                CHANNELS 3 Zrotation Xrotation Yrotation
                                JOINT RightFinger21
                                {
                                    OFFSET  -5.111610   0.000000   0.000000
                                    CHANNELS 3 Zrotation Xrotation Yrotation
                                    JOINT RightFinger22
                                    {
                                        OFFSET  -2.788160   0.000000   0.000000
                                        CHANNELS 3 Zrotation Xrotation Yrotation
                                        End Site
                                        {
                                            OFFSET  -2.727660   0.000000   0.000000
                                        }
                                    }
                                }
                            }
                            JOINT RightFinger3
                            {
                                OFFSET  -7.899780   0.000000  -1.078090
                                CHANNELS 3 Zrotation Xrotation Yrotation
                                JOINT RightFinger31
                                {
                                    OFFSET  -4.646920   0.000000   0.000000
                                    CHANNELS 3 Zrotation Xrotation Yrotation
                                    JOINT RightFinger32
                                    {
                                        OFFSET  -2.323470   0.000000   0.000000
                                        CHANNELS 3 Zrotation Xrotation Yrotation
                                        End Site
                                        {
                                            OFFSET  -2.273050   0.000000   0.000000
                                        }
                                    }
                                }
                            }
                            JOINT RightFinger4
                            {
                                OFFSET  -7.435090   0.000000  -3.252850
                                CHANNELS 3 Zrotation Xrotation Yrotation
                                JOINT RightFinger41
                                {
                                    OFFSET  -3.717550   0.000000   0.000000
                                    CHANNELS 3 Zrotation Xrotation Yrotation
                                    JOINT RightFinger42
                                    {
                                        OFFSET  -1.858770   0.000000   0.000000
                                        CHANNELS 3 Zrotation Xrotation Yrotation
                                        End Site
                                        {
                                            OFFSET  -1.818440   0.000000   0.000000
                                        }
                                    }
                                }
                            }
                        }
                    }
                }
            }
        }
    }
    JOINT LeftHip
    {
        OFFSET   9.783010   0.000000   0.000000
        CHANNELS 3 Zrotation Xrotation Yrotation
        JOINT LeftKnee
        {
            OFFSET   0.000070 -41.789100   0.000028
            CHANNELS 3 Zrotation Xrotation Yrotation
            JOINT LeftAnkle
            {
                OFFSET   0.000087 -41.133200  -0.000100
                CHANNELS 3 Zrotation Xrotation Yrotation
                JOINT LeftToe
                {
                    OFFSET   0.000000  -6.358960  14.674500
                    CHANNELS 3 Zrotation Xrotation Yrotation
                    End Site
                    {
                        OFFSET   0.000000   0.000000   3.913200
                    }
                }
            }
        }
    }
    JOINT RightHip
    {
        OFFSET  -9.783020   0.000000   0.000000
        CHANNELS 3 Zrotation Xrotation Yrotation
        JOINT RightKnee
        {
            OFFSET   0.000044 -41.789100  -0.000870
            CHANNELS 3 Zrotation Xrotation Yrotation
            JOINT RightAnkle
            {
                OFFSET  -0.000090 -41.133200  -0.000245
                CHANNELS 3 Zrotation Xrotation Yrotation
                JOINT RightToe
                {
                    OFFSET   0.000000  -6.358960  14.674500
                    CHANNELS 3 Zrotation Xrotation Yrotation
                    End Site
                    {
                        OFFSET   0.000000   0.000000   3.913200
                    }
                }
            }
        }
    }
}
MOTION
Frames: 4
Frame Time:   0.016667
 -1.204500  89.555400  -1.378330  -1.520580  -0.345171  -0.404927   0.854117   2.487810  -0.725647   1.742190   4.964270  -1.490460  -0.189450  -0.743499   0.001205  -0.316361  -1.507730   6.400120  -5.560310   1.782980   7.726080 -75.627100   5.424330   2.030860   0.096374   4.166910 -15.479500  11.774400  -6.373330  -1.554660  36.941700  29.760300 -45.351100 -34.650400   0.000000  -0.000000 -12.478900   0.000000  -0.001395 -38.013600  -0.871377   1.112380 -31.108900  -0.009025   0.000463 -21.776300   0.000685   0.007357 -28.577300  -3.747470   6.838490 -43.239300  -0.002372  -0.000940 -28.797300   0.002613  -0.001258 -29.117800  -4.694300   8.345240 -44.191500  -0.001234   0.001508 -29.431500   0.000179   0.001215 -40.041900  -6.193850   7.307080 -60.657400  -0.006422  -0.002563 -40.397900  -0.000678  -0.002640  11.254400   4.459890   6.088740  68.491600  -1.489180   0.019075   4.853350  -7.944990  12.223300 -28.587400   1.166180   8.348580 -44.000000  37.606900  79.281500  22.324500   0.003786  -0.005541   6.162260   0.003499  -0.011039  48.441700  11.364900   9.899990  40.442900   0.002227   0.013892  30.317300   0.006369   0.007650  40.167100   4.768490   5.622360  54.350500  -0.001749  -0.006536  37.402000   0.003890   0.003609  49.054500   2.086860   1.809280  54.353400   0.005080  -0.001412  39.596500   0.011209   0.006110  55.819600  -6.945640  -4.694940  84.157100   0.000578   0.002089  56.048600   0.001422  -0.011998   3.357110   1.794180  -0.805394   0.102644   0.743423  13.264800  -2.713940  -2.741070  -0.230022  -0.000000   0.000000  -0.000000   0.579346   1.694660  -5.303730  -0.439601   1.658640 -15.980700   1.180430  -2.799020   3.235930  -0.000000   0.000000   0.000000
 -1.200300  89.555300  -1.377380  -1.520320  -0.350102  -0.409689   0.845726   2.487660  -0.726736   1.725350   4.964130  -1.492160  -0.189632  -0.717651   0.001210  -0.316156  -1.455500   6.379910  -5.560340   1.783500   7.725080 -75.627100   5.424650   2.029670   0.087907   4.151490 -15.474100  11.760100  -6.372750  -1.569740  36.949500  29.772500 -45.319000 -34.645200   0.000000  -0.000000 -12.475900   0.000000  -0.001400 -38.032900  -0.872077   1.113280 -31.124800  -0.009040   0.000461 -21.787400   0.000692   0.007349 -28.568900  -3.747420   6.844300 -43.203700  -0.002373  -0.000943 -28.773600   0.002604  -0.001260 -29.140300  -4.694830   8.341160 -44.224700  -0.001225   0.001522 -29.453600   0.000170   0.001225 -40.063500  -6.194470   7.302650 -60.689400  -0.006440  -0.002562 -40.419200  -0.000682  -0.002641  11.253200   4.439950   6.084320  68.506000  -1.369260   0.098721   4.803890  -7.926800  12.215000 -28.600100   1.234880   8.385830 -44.155900  37.758300  79.447300  22.263000   0.003762  -0.005477   6.131510   0.003494  -0.011042  48.387000  11.364800   9.921580  40.399600   0.002198   0.013898  30.278500   0.006352   0.007638  40.081100   4.768410   5.639160  54.345800  -0.001760  -0.006566  37.376300   0.003873   0.003597  48.975500   2.093890   1.821120  54.353900   0.005064  -0.001435  39.580200   0.011218   0.006111  55.771000  -6.924210  -4.689000  84.082100   0.000541   0.002049  55.998600   0.001388  -0.012007   3.357150   1.804070  -0.801223   0.096139   0.736029  13.265200  -2.710290  -2.741060  -0.229386  -0.000000   0.000000   0.000000   0.574770   1.651400  -5.296120  -0.438127   1.711070 -15.980700   1.180660  -2.799490   3.235880  -0.000000   0.000000  -0.000000
 -1.193540  89.555200  -1.375490  -1.520200  -0.363853  -0.426501   0.831412   2.487510  -0.727825   1.696810   4.963980  -1.493850  -0.189814  -0.673820   0.001232  -0.314646  -1.366770   6.336650  -5.560610   1.787170   7.718070 -75.626500   5.426930   2.021380   0.073583   4.121090 -15.464800  11.734700  -6.368910  -1.594430  36.957200  29.784800 -45.286800 -34.635400   0.000000   0.000000 -12.468700   0.000000  -0.001429 -38.059300  -0.872777   1.114170 -31.146500  -0.009076   0.000457 -21.802500   0.000712   0.007327 -28.560400  -3.747370   6.850110 -43.168000  -0.002377  -0.000951 -28.749800   0.002580  -0.001266 -29.165200  -4.695400   8.334690 -44.261900  -0.001202   0.001558 -29.478400   0.000146   0.001252 -40.094000  -6.195120   7.295630 -60.734700  -0.006485  -0.002559 -40.449400  -0.000691  -0.002644  11.244100   4.404670   6.054220  68.550300  -1.177150   0.259876   4.719730  -7.869480  12.205600 -28.647300   1.448200   8.504470 -44.336900  37.992500  79.732900  22.153800   0.003702  -0.005339   6.076940   0.003480  -0.011050  48.332400  11.364600   9.943160  40.356300   0.002130   0.013913  30.239700   0.006316   0.007610  39.995200   4.768350   5.655950  54.341100  -0.001784  -0.006633  37.350600   0.003832   0.003572  48.896400   2.100910   1.832960  54.354300   0.005029  -0.001473  39.563900   0.011235   0.006113  55.706400  -6.896020  -4.680950  83.982800   0.000480   0.001982  55.932500   0.001330  -0.012026   3.357530   1.828380  -0.794923   0.085389   0.721612  13.268400  -2.703910  -2.741000  -0.225455   0.000000   0.000000  -0.000000   0.567970   1.608150  -5.281570  -0.436716   1.763600 -15.977900   1.181000  -2.800160   3.235830  -0.000000   0.000000   0.000000
 -1.187450  89.555000  -1.372690  -1.522070  -0.384885  -0.453961   0.819901   2.488760  -0.719210   1.673470   4.966720  -1.476240  -0.189370  -0.637729   0.001285  -0.317406  -1.293300   6.290380  -5.565290   1.803050   7.695590 -75.624900   5.436840   2.001180   0.061732   4.087810 -15.454500  11.709600  -6.356120  -1.612650  36.961500  29.781500 -45.318800 -34.624500   0.000042   0.000053 -12.457600   0.000000  -0.001502 -38.064800  -0.869590   1.110180 -31.150900  -0.009131   0.000452 -21.805600   0.000741   0.007294 -28.578600  -3.747370   6.847200 -43.170000  -0.002382  -0.000963 -28.751100   0.002543  -0.001274 -29.167200  -4.692710   8.332400 -44.264500  -0.001168   0.001614 -29.480200   0.000108   0.001294 -40.104100  -6.192130   7.293120 -60.749000  -0.006555  -0.002554 -40.458900  -0.000707  -0.002652  11.220500   4.369100   5.973480  68.628600  -1.008350   0.446376   4.644560  -7.765520  12.206600 -28.802600   1.852220   8.713940 -44.311900  38.174100  80.037900  22.044600   0.003609  -0.005154   6.022320   0.003454  -0.011065  48.346200  11.362900   9.937990  40.367000   0.002026   0.013935  30.248700   0.006266   0.007568  40.000100   4.768440   5.655210  54.341800  -0.001819  -0.006731  37.352400   0.003774   0.003539  48.914200   2.099190   1.830630  54.353200   0.004982  -0.001510  39.568000   0.011260   0.006113  55.687800  -6.888130  -4.678440  83.954400   0.000418   0.001915  55.913600   0.001272  -0.012052   3.359080   1.861960  -0.791882   0.077647   0.706442  13.281800  -2.698620  -2.739460  -0.217210  -0.000000   0.000000  -0.000000   0.559544   1.631580  -5.265530  -0.430140   1.763720 -15.969300   1.181160  -2.800470   3.235990   0.000000   0.000000  -0.000000
